<svg width="360" height="76" viewBox="0 0 360 76" fill="none" xmlns="http://www.w3.org/2000/svg">
<g clip-path="url(#clip0)">
<path d="M154.522 33.5139L149.306 58.7967H135.718L140.934 33.5139C141.343 31.5267 141.106 31.1604 139.18 31.1604H134.275C132.362 31.1604 131.961 31.5267 131.556 33.4634C131.556 33.4634 131.556 33.4971 131.556 33.5139L126.34 58.7967H112.74L117.96 33.5139C118.369 31.5267 118.132 31.1604 116.202 31.1604H111.297C109.367 31.1604 108.979 31.5309 108.57 33.5139L103.35 58.7967H89.7618L97.77 19.9862H108.807L110.557 23.3208C111.563 22.2294 112.782 21.3684 114.133 20.7939C115.483 20.2193 116.937 19.9442 118.398 19.9862H121.214C126.528 19.9862 130.113 22.3651 131.397 26.3859C133.772 21.9146 137.214 19.9862 141.371 19.9862H144.192C152.176 19.9862 156.235 25.2954 154.522 33.5139Z" fill="white"/>
<path d="M288.282 19L263.088 57.8105H249.19L240 19H254.884L258.886 44.4849L273.398 19.0211L288.282 19Z" fill="white"/>
<path d="M195.961 33.5139L193.537 45.269C191.841 53.4875 185.586 58.7967 177.594 58.7967H167.301C159.321 58.7967 155.262 53.4833 156.959 45.2648L159.383 33.5139C161.075 25.2954 167.33 19.9862 175.326 19.9862H185.635C193.598 19.9862 197.662 25.2954 195.961 33.5139ZM182.361 33.5139C182.77 31.5266 182.532 31.1603 180.607 31.1603H175.702C173.772 31.1603 173.384 31.5308 172.975 33.5139L170.547 45.2648C170.138 47.2521 170.379 47.6184 172.305 47.6184H177.21C179.135 47.6184 179.528 47.2479 179.937 45.2648L182.361 33.5139Z" fill="white"/>
<path d="M238.03 30.4542C237.532 32.6604 236.332 34.6317 234.62 36.0539L227.699 41.9483C226.04 43.3855 223.952 44.1938 221.784 44.2387H212.202L211.986 45.2786C211.577 47.2659 211.814 47.6322 213.743 47.6322H234.477L232.172 58.8105H208.723C200.744 58.8105 196.685 53.4971 198.381 45.2786L200.805 33.5277C202.502 25.3092 208.756 20 216.748 20H227.066C235.025 20.0168 239.141 25.0481 238.03 30.4542ZM223.796 33.5445C224.204 31.5573 223.967 31.191 222.038 31.191H217.132C215.211 31.1868 214.802 31.5615 214.393 33.5445L213.576 37.5906H221.67C222.033 37.5751 222.381 37.4381 222.661 37.2002C222.942 36.9623 223.139 36.6367 223.223 36.2728L223.796 33.5445Z" fill="white"/>
<path d="M296.041 52.2076C295.289 55.8495 292.497 58.8009 288.274 58.8009C284.051 58.8009 282.481 55.8537 283.234 52.2076C283.986 48.5615 286.778 45.6185 291.001 45.6185C295.223 45.6185 296.781 48.5615 296.041 52.2076Z" fill="#4CD62B"/>
<path d="M325.196 19.9862L322.89 31.1561L317.167 58.7925H303.583L309.306 31.1561H302.524L304.834 19.982L325.196 19.9862ZM315.107 12.7403C312.752 10.0457 313.472 5.42283 316.705 2.42089C319.939 -0.581053 324.472 -0.82525 326.839 1.87355C329.206 4.57235 328.474 9.19525 325.241 12.1972C322.007 15.1991 317.465 15.4433 315.107 12.7403Z" fill="white"/>
<path d="M347 25.5733L342.937 45.2649C342.528 47.2521 342.765 47.6184 344.691 47.6184H353.14L350.835 58.7967H339.679C331.699 58.7967 327.636 53.4834 329.333 45.2649L333.396 25.5733H328.257L330.563 14.395H335.714L337.602 5.24182H351.203L349.314 14.395H360.008L357.69 25.5733H347Z" fill="white"/>
<path d="M36.7338 5.69226H53.9765L39.6321 75.9999H22.3894L36.7338 5.69226Z" fill="white"/>
<path d="M62.0337 5.69226H79.2764L68.1001 60.7797H50.8533L62.0337 5.69226Z" fill="white"/>
<path d="M11.1804 5.69226H28.4231L17.2468 60.7797H0L11.1804 5.69226Z" fill="white"/>
</g>
<defs>
<clipPath id="clip0">
<rect width="360" height="76" fill="white"/>
</clipPath>
</defs>
</svg>
